<svg width="71" height="48" viewBox="0 0 71 48" fill="none" xmlns="http://www.w3.org/2000/svg">
<rect x="0.875" y="0.5" width="69" height="47" rx="5.5" fill="white" stroke="#D9D9D9"/>
<path fill-rule="evenodd" clip-rule="evenodd" d="M17.0674 17.8659C18.0075 17.9452 18.9476 17.3901 19.5351 16.6863C20.1129 15.9627 20.4948 14.9913 20.3969 14C19.5645 14.0397 18.5363 14.5551 17.9487 15.2787C17.4102 15.9032 16.9499 16.9143 17.0674 17.8659ZM28.2505 30.6333V15.1796H33.9791C36.9365 15.1796 39.0027 17.2414 39.0027 20.2548C39.0027 23.2683 36.8973 25.3499 33.9008 25.3499H30.6203V30.6333H28.2505ZM20.387 18.0542C19.5588 18.006 18.8031 18.3064 18.1927 18.549C17.7999 18.7051 17.4673 18.8373 17.2142 18.8373C16.9302 18.8373 16.5839 18.6981 16.195 18.5417L16.195 18.5417L16.195 18.5417L16.195 18.5417C15.6854 18.3368 15.1028 18.1025 14.4919 18.1137C13.0916 18.1335 11.7892 18.9365 11.0743 20.2152C9.60544 22.7726 10.6924 26.5593 12.1123 28.6409C12.8076 29.6718 13.64 30.8018 14.7367 30.7622C15.2192 30.7438 15.5663 30.5947 15.9255 30.4404C16.3391 30.2628 16.7687 30.0782 17.4395 30.0782C18.087 30.0782 18.4978 30.2579 18.8922 30.4305C19.2671 30.5945 19.6272 30.752 20.1618 30.7424C21.2977 30.7225 22.0126 29.7115 22.7078 28.6806C23.4581 27.5741 23.7879 26.4943 23.8379 26.3304L23.8438 26.3114C23.8426 26.3102 23.8333 26.3059 23.8169 26.2984C23.5661 26.1821 21.649 25.2937 21.6307 22.9114C21.6122 20.9118 23.1512 19.8987 23.3935 19.7392C23.4082 19.7295 23.4182 19.723 23.4227 19.7196C22.4434 18.2525 20.9158 18.0939 20.387 18.0542ZM43.3311 30.7523C44.8195 30.7523 46.2003 29.989 46.827 28.7797H46.876V30.6333H49.0695V22.9412C49.0695 20.7108 47.3068 19.2735 44.5943 19.2735C42.0776 19.2735 40.217 20.7307 40.1485 22.733H42.2833C42.4595 21.7814 43.3311 21.1569 44.5258 21.1569C45.975 21.1569 46.7878 21.8409 46.7878 23.0998V23.9522L43.8305 24.1307C41.0788 24.2992 39.5903 25.4391 39.5903 27.4217C39.5903 29.424 41.1277 30.7523 43.3311 30.7523ZM43.9674 28.9185C42.7042 28.9185 41.9012 28.3039 41.9012 27.3622C41.9012 26.3908 42.6748 25.8257 44.1535 25.7365L46.7877 25.568V26.4403C46.7877 27.8876 45.5734 28.9185 43.9674 28.9185ZM56.3452 31.238C55.3954 33.9442 54.3084 34.8363 51.9974 34.8363C51.8211 34.8363 51.2335 34.8165 51.0964 34.7768V32.9232C51.2433 32.943 51.6057 32.9628 51.7917 32.9628C52.8395 32.9628 53.4271 32.5167 53.7894 31.357L54.0048 30.673L49.9899 19.4222H52.4674L55.2583 28.5517H55.3072L58.0981 19.4222H60.5071L56.3452 31.238ZM30.6201 17.2018H33.3522C35.4086 17.2018 36.5837 18.312 36.5837 20.2648C36.5837 22.2175 35.4086 23.3377 33.3424 23.3377H30.6201V17.2018Z" fill="#7D7D7D"/>
</svg>
