<svg width="71" height="48" viewBox="0 0 71 48" fill="none" xmlns="http://www.w3.org/2000/svg">
<rect x="1" y="0.5" width="69" height="47" rx="5.5" fill="white" stroke="#D9D9D9"/>
<path fill-rule="evenodd" clip-rule="evenodd" d="M36 34.3139C33.6169 36.3704 30.5255 37.6119 27.1475 37.6119C19.6102 37.6119 13.5 31.4308 13.5 23.806C13.5 16.1811 19.6102 10 27.1475 10C30.5255 10 33.6169 11.2415 36 13.2981C38.3831 11.2415 41.4745 10 44.8525 10C52.3898 10 58.5 16.1811 58.5 23.806C58.5 31.4308 52.3898 37.6119 44.8525 37.6119C41.4745 37.6119 38.3831 36.3704 36 34.3139Z" fill="#ED0006"/>
<path fill-rule="evenodd" clip-rule="evenodd" d="M36 34.3139C38.9344 31.7816 40.7951 28.0136 40.7951 23.806C40.7951 19.5983 38.9344 15.8303 36 13.2981C38.3831 11.2415 41.4745 10 44.8525 10C52.3898 10 58.5 16.1811 58.5 23.806C58.5 31.4308 52.3898 37.6119 44.8525 37.6119C41.4745 37.6119 38.3831 36.3704 36 34.3139Z" fill="#F9A000"/>
<path fill-rule="evenodd" clip-rule="evenodd" d="M36.0001 13.2981C38.9345 15.8304 40.7951 19.5984 40.7951 23.806C40.7951 28.0136 38.9345 31.7816 36.0001 34.3138C33.0657 31.7816 31.2051 28.0136 31.2051 23.806C31.2051 19.5984 33.0657 15.8304 36.0001 13.2981Z" fill="#FF5E00"/>
</svg>
