<svg width="70" height="48" viewBox="0 0 70 48" fill="none" xmlns="http://www.w3.org/2000/svg">
<rect x="0.5" y="0.5" width="69" height="47" rx="5.5" fill="white" stroke="#D9D9D9"/>
<path fill-rule="evenodd" clip-rule="evenodd" d="M19.8 30.4819H16.6888C16.4759 30.4819 16.2948 30.6366 16.2616 30.8467L15.0033 38.8248C14.9783 38.9823 15.1002 39.1242 15.2599 39.1242H16.7452C16.9581 39.1242 17.1392 38.9695 17.1724 38.7589L17.5118 36.6072C17.5445 36.3964 17.726 36.2419 17.9385 36.2419H18.9234C20.9729 36.2419 22.1556 35.2501 22.4647 33.2848C22.6038 32.425 22.4705 31.7495 22.0678 31.2762C21.6257 30.7568 20.8413 30.4819 19.8 30.4819ZM20.159 33.3958C19.9889 34.5122 19.1358 34.5122 18.3111 34.5122H17.8416L18.1709 32.4271C18.1905 32.3012 18.2997 32.2084 18.4271 32.2084H18.6422C19.2041 32.2084 19.7341 32.2084 20.008 32.5286C20.1712 32.7198 20.2213 33.0036 20.159 33.3958ZM29.1002 33.36H27.6103C27.4834 33.36 27.3737 33.4528 27.3541 33.5789L27.2882 33.9956L27.184 33.8446C26.8615 33.3764 26.1423 33.22 25.4244 33.22C23.7779 33.22 22.3718 34.4669 22.0979 36.2162C21.9556 37.0886 22.1579 37.9229 22.6529 38.5048C23.107 39.0398 23.7567 39.2627 24.5295 39.2627C25.856 39.2627 26.5918 38.4097 26.5918 38.4097L26.5253 38.8238C26.5002 38.9821 26.6221 39.124 26.7809 39.124H28.123C28.3365 39.124 28.5165 38.9693 28.5501 38.7587L29.3554 33.6594C29.3809 33.5025 29.2594 33.36 29.1002 33.36ZM27.0234 36.2598C26.8796 37.1109 26.204 37.6823 25.3426 37.6823C24.9099 37.6823 24.564 37.5436 24.3421 37.2806C24.1219 37.0196 24.0381 36.6478 24.1082 36.2339C24.2425 35.3899 24.9295 34.8 25.7779 34.8C26.2009 34.8 26.5449 34.9404 26.7714 35.2057C26.9983 35.4737 27.0885 35.8476 27.0234 36.2598ZM35.5379 33.3598H37.0352C37.2449 33.3598 37.3672 33.5949 37.2481 33.7669L32.2685 40.9547C32.1878 41.0712 32.055 41.1404 31.9131 41.1404H30.4177C30.2072 41.1404 30.0842 40.9034 30.2061 40.7309L31.7567 38.5423L30.1076 33.7027C30.0506 33.5345 30.1748 33.3598 30.3537 33.3598H31.8249C32.016 33.3598 32.1847 33.4852 32.2398 33.6682L33.115 36.5911L35.1801 33.5495C35.2609 33.4307 35.3952 33.3598 35.5379 33.3598Z" fill="#253B80"/>
<path fill-rule="evenodd" clip-rule="evenodd" d="M51.7713 38.8248L53.0481 30.7008C53.0677 30.5747 53.177 30.4818 53.3039 30.4814H54.7414C54.9001 30.4814 55.022 30.6237 54.997 30.7812L53.7378 38.7589C53.705 38.9694 53.5239 39.1242 53.3106 39.1242H52.0269C51.8681 39.1242 51.7462 38.9823 51.7713 38.8248ZM41.9925 30.4818H38.8807C38.6683 30.4818 38.4872 30.6366 38.454 30.8467L37.1957 38.8248C37.1706 38.9823 37.2925 39.1242 37.4514 39.1242H39.0481C39.1965 39.1242 39.3235 39.0159 39.3466 38.8686L39.7037 36.6071C39.7365 36.3964 39.918 36.2418 40.1304 36.2418H41.1148C43.1647 36.2418 44.3473 35.25 44.6565 33.2848C44.7961 32.425 44.662 31.7494 44.2595 31.2761C43.8176 30.7568 43.0338 30.4818 41.9925 30.4818ZM42.3515 33.3957C42.1818 34.5121 41.3287 34.5121 40.5035 34.5121H40.0344L40.3643 32.4271C40.3839 32.3012 40.4921 32.2084 40.6199 32.2084H40.835C41.3965 32.2084 41.927 32.2084 42.2007 32.5286C42.3641 32.7197 42.4138 33.0035 42.3515 33.3957ZM51.2919 33.3599H49.8031C49.6751 33.3599 49.5664 33.4528 49.5473 33.5789L49.4814 33.9955L49.3767 33.8446C49.0542 33.3764 48.3355 33.2199 47.6176 33.2199C45.971 33.2199 44.5654 34.4669 44.2915 36.2162C44.1496 37.0886 44.351 37.9229 44.846 38.5048C45.3009 39.0397 45.9498 39.2627 46.7226 39.2627C48.0492 39.2627 48.7847 38.4096 48.7847 38.4096L48.7184 38.8237C48.6934 38.9821 48.8153 39.1239 48.9751 39.1239H50.3165C50.529 39.1239 50.71 38.9692 50.7433 38.7587L51.549 33.6593C51.5736 33.5025 51.4517 33.3599 51.2919 33.3599ZM49.2153 36.2597C49.0723 37.1109 48.3959 37.6823 47.5342 37.6823C47.1024 37.6823 46.7559 37.5435 46.5338 37.2806C46.3136 37.0195 46.2308 36.6477 46.3001 36.2338C46.435 35.3898 47.1212 34.7999 47.9696 34.7999C48.3927 34.7999 48.7365 34.9404 48.9633 35.2056C49.1911 35.4736 49.2812 35.8475 49.2153 36.2597Z" fill="#179BD7"/>
<path d="M31.3143 27.6277L31.6968 25.1983L30.8448 25.1785H26.7764L29.6037 7.25081C29.6124 7.19668 29.641 7.14622 29.6827 7.11039C29.7244 7.07456 29.7778 7.05481 29.8334 7.05481H36.6934C38.9709 7.05481 40.5425 7.52873 41.3631 8.46412C41.7478 8.90294 41.9928 9.36149 42.1114 9.86612C42.2356 10.3956 42.2379 11.0282 42.1164 11.7998L42.1076 11.8561V12.3505L42.4924 12.5685C42.8164 12.7403 43.0737 12.9371 43.2711 13.1623C43.6004 13.5375 43.8133 14.0144 43.9031 14.5797C43.996 15.1611 43.9653 15.853 43.8133 16.6363C43.6377 17.5373 43.3539 18.322 42.9707 18.9642C42.6181 19.5558 42.169 20.0465 41.636 20.4269C41.1269 20.7881 40.5221 21.0625 39.8383 21.238C39.1756 21.4105 38.4202 21.4976 37.5915 21.4976H37.0577C36.676 21.4976 36.305 21.6351 36.0141 21.8816C35.7223 22.1332 35.529 22.4768 35.4699 22.8528L35.4297 23.0715L34.7539 27.3534L34.7231 27.5107C34.7151 27.5606 34.7012 27.5854 34.6808 27.6023C34.6625 27.6174 34.6362 27.6277 34.6105 27.6277H31.3143Z" fill="#253B80"/>
<path d="M42.8567 11.9134C42.8363 12.0443 42.813 12.1781 42.7866 12.3156C41.8818 16.9605 38.7868 18.5651 34.8338 18.5651H32.8211C32.3378 18.5651 31.9304 18.9161 31.855 19.3929L30.8245 25.9284L30.5327 27.7808C30.4837 28.0939 30.7251 28.3762 31.0409 28.3762H34.6108C35.0336 28.3762 35.3925 28.069 35.459 27.6522L35.4942 27.4707L36.1664 23.2054L36.2096 22.9715C36.2753 22.5532 36.635 22.2461 37.0578 22.2461H37.5917C41.0502 22.2461 43.7578 20.8418 44.5492 16.7784C44.8797 15.0809 44.7085 13.6635 43.8338 12.6667C43.5692 12.3661 43.2407 12.1167 42.8567 11.9134Z" fill="#179BD7"/>
<path d="M41.9099 11.5363C41.7718 11.4961 41.629 11.4595 41.4827 11.4266C41.3358 11.3945 41.185 11.3659 41.0301 11.3411C40.4874 11.2533 39.8928 11.2116 39.2558 11.2116H33.8789C33.7465 11.2116 33.6208 11.2416 33.5082 11.2957C33.2602 11.4149 33.076 11.6497 33.0313 11.9371L31.8873 19.1819L31.8545 19.3933C31.9299 18.9164 32.3372 18.5654 32.8206 18.5654H34.8332C38.7863 18.5654 41.8815 16.9601 42.7861 12.316C42.813 12.1785 42.8358 12.0446 42.8562 11.9137C42.6274 11.7923 42.3794 11.6885 42.1124 11.6C42.0467 11.578 41.9787 11.5568 41.9099 11.5363Z" fill="#222D65"/>
<path d="M33.0311 11.937C33.0758 11.6495 33.2602 11.4148 33.508 11.2963C33.6215 11.2422 33.7465 11.2122 33.8787 11.2122H39.2558C39.8928 11.2122 40.4874 11.2539 41.0299 11.3416C41.185 11.3665 41.3358 11.395 41.4827 11.4272C41.629 11.4601 41.7716 11.4967 41.9099 11.5369C41.9785 11.5574 42.0465 11.5786 42.1131 11.5998C42.38 11.6883 42.628 11.7929 42.8568 11.9136C43.1261 10.1971 42.8547 9.02837 41.9267 7.97009C40.9036 6.80505 39.0568 6.30627 36.6939 6.30627H29.8337C29.3509 6.30627 28.9393 6.65731 28.8646 7.13489L26.0073 25.2468C25.9509 25.6052 26.2273 25.9285 26.5886 25.9285H30.824L31.8873 19.1817L33.0311 11.937Z" fill="#253B80"/>
</svg>
